<svg width="126" height="33" viewBox="0 0 126 33" fill="none" xmlns="http://www.w3.org/2000/svg">
<g clip-path="url(#clip0_5_26)">
<path d="M38.61 0.41L37.78 0L37.37 0.83L26.89 22.07L48.13 32.55L48.96 32.96L49.37 32.13L59.85 10.89L38.61 0.41ZM58.09 11.49L53.5 20.77L43.87 16.02L39.17 2.16L58.09 11.49ZM37.93 2.58L42.21 15.21L33.75 11.04L37.92 2.58H37.93ZM28.61 21.48L33.18 12.2L42.8 16.95L47.5 30.81L28.61 21.47V21.48ZM44.45 17.77L52.91 21.94L48.74 30.4L44.46 17.77H44.45Z" fill="white"/>
<path d="M37.42 0.41L36.59 0L36.18 0.83L25.69 22.07L46.93 32.55L47.76 32.96L48.17 32.13L58.65 10.89L37.42 0.41ZM56.9 11.49L52.31 20.78L42.68 16.03L37.98 2.17L56.9 11.5V11.49ZM36.75 2.58L41.03 15.21L32.57 11.04L36.74 2.58H36.75ZM27.43 21.48L32 12.2L41.62 16.95L46.32 30.81L27.43 21.47V21.48ZM43.27 17.77L51.73 21.94L47.56 30.4L43.28 17.77H43.27Z" fill="white"/>
<path d="M0 14.98H2.52V30.21H0V14.98ZM9.53 14.98V16.86H3.37V14.98H9.53ZM8.89 23.35H3.37V21.66H8.89V23.35ZM3.37 28.33H9.53V30.21H3.37V28.33Z" fill="white"/>
<path d="M12.92 30.22V14.99H15.44V30.22H12.92ZM21.41 14.99H23.93V30.22H21.41L16.29 21.21V16.46L21.41 25.49V14.99Z" fill="white"/>
<path d="M60.35 14.98H62.87L66.96 24.38V28.2H66.3L62.87 19.73V30.21H60.35V14.98ZM71.9 14.98H74.42V30.21H71.9V19.73L68.49 28.2H67.81V24.42L71.9 14.97V14.98Z" fill="white"/>
<path d="M78.29 14.98H80.81V30.21H78.29V14.98ZM87.82 14.98V16.86H81.66V14.98H87.82ZM87.18 23.35H81.66V21.66H87.18V23.35ZM81.66 28.33H87.82V30.21H81.66V28.33Z" fill="white"/>
<path d="M91.29 14.98H93.77V30.21H91.29V14.98ZM95.88 14.98C97.16 14.98 98.29 15.18 99.26 15.59C100.23 16 101.04 16.54 101.68 17.21C102.32 17.89 102.8 18.65 103.12 19.51C103.44 20.37 103.6 21.26 103.6 22.17C103.6 23.42 103.47 24.5 103.2 25.38C102.93 26.27 102.59 27.01 102.18 27.61C101.77 28.21 101.3 28.68 100.78 29.03C100.26 29.37 99.76 29.63 99.28 29.81C98.8 29.98 98.36 30.09 97.96 30.14C97.56 30.19 97.26 30.21 97.07 30.21H94.63V28.39H96.24C97.92 28.39 99.13 27.85 99.88 26.78C100.62 25.71 101 24.15 101 22.11C101 21.48 100.92 20.85 100.77 20.23C100.62 19.61 100.33 19.05 99.89 18.55C99.46 18.05 98.87 17.64 98.12 17.33C97.38 17.02 96.41 16.87 95.23 16.87H94.63V14.99H95.89L95.88 14.98Z" fill="white"/>
<path d="M109.68 30.22H107.16V14.99H109.68V30.22Z" fill="white"/>
<path d="M125.97 30.22H123.41L119.46 18.81L115.47 30.22H112.89L118.22 15.01H120.68L125.97 30.22ZM120.82 25.38L121.42 27.05H117.47L118.05 25.38H120.82Z" fill="white"/>
</g>
<defs>
<clipPath id="clip0_5_26">
<rect width="125.97" height="32.96" fill="white"/>
</clipPath>
</defs>
</svg>
